<?xml version="1.0" standalone="no"?>
<!DOCTYPE svg PUBLIC "-//W3C//DTD SVG 20010904//EN"
 "http://www.w3.org/TR/2001/REC-SVG-20010904/DTD/svg10.dtd">
<svg version="1.0" xmlns="http://www.w3.org/2000/svg"
 width="500.000000pt" height="500.000000pt" viewBox="0 0 500.000000 500.000000"
 preserveAspectRatio="xMidYMid meet">
<metadata>
Created by potrace 1.16, written by Peter Selinger 2001-2019
</metadata>
<g transform="translate(0.000000,500.000000) scale(0.096154,-0.096154)"
fill="#000000" stroke="none">
<path d="M0 5120 c0 -72 2 -80 23 -91 12 -7 35 -23 50 -35 16 -13 37 -24 48
-24 11 0 37 -13 57 -29 20 -16 109 -66 197 -111 88 -45 178 -93 200 -105 22
-13 276 -148 565 -301 289 -153 642 -340 785 -415 166 -88 263 -135 269 -129
15 15 30 12 17 -4 -9 -11 61 -52 375 -219 l386 -205 61 43 c284 197 891 521
941 502 37 -15 11 -38 -111 -97 -209 -100 -517 -267 -685 -369 -87 -53 -158
-98 -158 -101 0 -3 143 -81 318 -174 354 -189 614 -328 1351 -725 277 -149
507 -268 510 -265 3 4 2 8 -4 10 -11 4 -270 142 -495 264 -153 82 -153 82
-157 111 -3 19 0 21 31 15 28 -5 34 -3 39 14 3 13 0 23 -9 27 -8 3 -14 9 -14
13 0 13 70 0 103 -20 17 -11 37 -20 42 -20 6 1 -2 8 -17 16 -16 8 -28 19 -28
24 0 5 -8 11 -18 14 -9 3 -29 17 -45 31 -15 15 -31 24 -36 21 -15 -10 -21 65
-6 80 18 18 26 18 19 -1 -4 -8 -1 -15 5 -15 6 0 11 4 11 10 0 10 55 -12 154
-61 32 -17 60 -28 62 -26 3 2 -36 30 -86 61 -49 32 -90 62 -90 67 0 14 53 10
73 -6 11 -7 25 -11 32 -8 8 2 29 -6 47 -19 18 -12 38 -24 45 -25 7 -2 36 -18
65 -36 29 -18 76 -46 103 -61 87 -48 11 8 -107 79 -140 84 -185 118 -180 133
2 8 9 9 20 3 9 -5 36 -12 59 -16 23 -3 47 -13 54 -21 12 -15 29 -19 29 -6 0 4
-20 20 -44 35 -48 30 -72 54 -63 63 3 3 54 -17 112 -45 59 -28 111 -48 116
-45 6 3 -9 15 -33 26 -118 56 -147 72 -142 79 3 5 -1 6 -9 3 -9 -3 -17 3 -20
16 -3 12 -10 19 -16 16 -6 -4 -21 5 -33 20 -13 15 -52 40 -88 56 -36 16 -83
37 -105 48 -45 21 -75 33 -90 35 -53 8 -92 22 -131 47 -54 34 -71 32 -19 -3
29 -20 62 -61 36 -44 -5 3 -12 1 -16 -5 -3 -6 1 -13 9 -16 9 -3 16 -12 16 -19
0 -16 -67 -13 -100 5 -15 8 -20 8 -16 1 10 -15 -4 -13 -34 4 -31 18 -68 18
-99 1 -22 -12 -27 -11 -53 13 -17 14 -38 29 -49 33 -17 7 -18 5 -9 -12 6 -11
16 -20 23 -20 7 0 23 -9 37 -20 l25 -19 -44 -43 c-24 -24 -41 -38 -37 -31 7
12 -27 37 -37 27 -3 -3 -14 -1 -24 6 -16 10 -16 11 0 6 9 -3 17 -2 17 3 0 14
-34 38 -62 45 -30 7 -59 47 -39 54 21 7 11 31 -19 47 -41 21 -38 25 13 14 48
-11 70 -34 63 -65 -5 -18 1 -25 35 -38 52 -21 60 -15 20 14 -35 24 -41 45 -11
37 16 -4 20 0 20 19 0 15 -6 24 -15 24 -8 0 -15 -4 -15 -10 0 -5 -7 -10 -15
-10 -8 0 -15 7 -15 15 0 17 -25 32 -95 58 -77 29 -89 32 -81 19 4 -7 2 -12 -3
-12 -22 0 -10 -20 40 -67 38 -37 49 -53 43 -67 -7 -18 -8 -18 -23 2 -10 14
-32 23 -59 26 -24 3 -49 10 -56 15 -22 18 -106 50 -106 40 0 -5 8 -12 18 -16
33 -12 44 -25 30 -36 -9 -6 -7 -7 6 -3 12 4 40 -4 73 -20 50 -26 67 -44 41
-44 -6 0 -20 -7 -30 -17 -15 -14 -22 -14 -46 -4 l-27 13 24 -26 c14 -14 28
-26 33 -26 9 0 15 -4 58 -43 14 -12 44 -31 68 -41 23 -10 39 -22 36 -27 -8
-13 31 -29 45 -19 6 6 5 3 -3 -6 -13 -15 -36 -6 -258 111 -134 71 -325 172
-425 224 -101 53 -183 101 -183 106 0 14 96 65 123 65 12 0 34 -7 49 -14 15
-8 30 -11 32 -7 3 4 -11 15 -31 25 -34 16 -35 18 -17 31 11 8 25 15 32 15 6 0
12 4 12 9 0 17 63 40 83 29 10 -5 21 -7 25 -4 3 3 0 6 -6 6 -19 0 -14 24 8 38
12 7 59 33 106 57 47 25 95 52 107 60 12 8 28 15 35 15 8 0 28 10 45 22 33 24
88 28 112 8 8 -7 15 -9 15 -5 0 4 -8 14 -17 21 -17 12 -17 14 2 28 11 8 26 16
33 16 7 0 18 5 25 10 7 6 43 26 82 45 50 24 72 30 77 22 6 -9 10 -9 17 2 7 10
18 11 56 3 58 -12 84 -6 58 13 -17 13 -17 14 1 21 12 4 38 -2 72 -19 66 -33
86 -34 54 -5 -29 27 -12 35 29 15 38 -19 84 -11 78 13 -4 15 3 17 54 16 42 -1
58 2 55 11 -9 21 41 43 101 44 32 0 52 3 46 6 -7 2 -13 12 -13 20 0 12 7 14
36 8 21 -3 48 -13 60 -22 13 -8 24 -12 24 -9 0 4 27 -8 60 -26 33 -17 60 -35
60 -40 0 -4 6 -8 14 -8 7 0 34 -16 59 -35 25 -19 51 -35 57 -35 6 0 25 -15 43
-34 26 -29 37 -34 60 -29 21 4 25 8 15 14 -14 9 -3 10 75 9 l37 0 0 675 0 675
-2600 0 -2600 0 0 -80z"/>
<path d="M125 4860 c-21 -21 -58 -52 -82 -67 -39 -25 -44 -31 -41 -61 3 -29
10 -38 53 -62 28 -15 347 -196 710 -402 363 -206 818 -464 1010 -573 193 -109
539 -306 770 -438 231 -132 618 -352 860 -490 242 -138 548 -312 680 -387 707
-403 1106 -630 1110 -630 3 0 5 91 5 203 l0 203 -85 54 c-46 30 -79 57 -74 61
6 3 -4 11 -23 18 -30 10 -31 9 -14 -4 11 -8 15 -15 9 -15 -7 0 -18 7 -27 15
-8 8 -19 15 -24 15 -5 0 -15 7 -22 15 -7 9 -15 13 -18 10 -3 -3 -19 6 -36 19
-47 35 -93 57 -109 50 -8 -3 -18 -1 -22 5 -4 7 1 9 12 5 15 -4 14 -3 -2 7 -11
7 -22 16 -25 20 -3 4 -12 9 -20 11 -8 2 -21 11 -28 20 -7 9 -41 30 -77 47 -35
17 -69 40 -76 52 -11 21 -8 20 42 -8 60 -33 100 -50 84 -35 -9 8 -476 261
-775 419 -511 271 -599 315 -560 283 l25 -20 -27 4 c-38 6 -35 0 12 -23 40
-19 40 -19 29 1 -6 11 -7 18 -2 16 4 -3 43 -21 86 -42 43 -20 75 -40 72 -46
-6 -10 74 -60 97 -60 22 0 84 -60 91 -87 5 -23 -7 -32 -18 -13 -3 6 -20 10
-36 10 -16 0 -39 9 -51 20 -18 17 -126 60 -151 60 -18 0 6 -21 40 -35 20 -9
34 -18 30 -21 -3 -3 -16 0 -29 7 -20 11 -22 10 -10 -3 7 -8 35 -26 62 -39 44
-21 64 -39 43 -39 -7 0 -67 18 -98 30 -42 17 -55 19 -70 14 -9 -4 7 -17 45
-36 33 -16 60 -34 60 -39 0 -12 -46 -11 -93 2 -53 14 -59 4 -8 -12 43 -13 46
-16 33 -36 -8 -12 -49 -12 -69 0 -5 3 -13 4 -17 0 -3 -4 13 -19 36 -35 92 -60
13 -23 -167 80 -105 60 -256 146 -338 191 -81 46 -157 91 -168 100 l-21 17 28
14 c21 12 28 12 31 3 5 -14 33 -18 33 -5 0 4 -5 13 -11 19 -16 16 -1 36 22 30
11 -3 19 -1 19 5 0 12 41 47 55 48 6 0 23 14 38 30 32 34 41 36 80 16 33 -18
35 -11 5 15 -20 16 -21 20 -8 28 12 9 12 11 -3 16 -11 5 -64 -27 -173 -103
-143 -101 -185 -121 -184 -88 0 6 55 49 121 96 66 47 134 95 150 107 28 20 29
22 12 31 -10 5 -153 81 -318 169 -304 162 -1381 731 -1841 972 -139 72 -263
131 -277 131 -16 0 -27 6 -27 14 0 11 -278 166 -299 166 -4 0 -24 -18 -46 -40z
m4477 -2380 c15 0 78 -52 73 -60 -3 -4 2 -11 11 -14 8 -3 12 -2 9 4 -9 15 11
12 24 -3 6 -8 8 -17 4 -21 -4 -4 1 -4 11 0 12 5 17 4 13 -3 -8 -12 59 -85 88
-97 13 -5 15 -10 8 -13 -7 -3 -27 2 -44 11 -28 14 -30 14 -25 -1 6 -15 5 -15
-11 -2 -10 9 -48 33 -85 55 -37 21 -68 44 -68 50 0 5 -25 26 -55 45 -50 31
-67 49 -47 49 4 0 25 -9 47 -20 21 -11 40 -18 42 -16 10 9 -12 35 -42 49 -19
9 -35 21 -35 27 0 5 16 -2 36 -15 20 -14 41 -25 46 -25z m-33 -80 c6 0 11 -4
11 -9 0 -5 23 -24 50 -42 28 -18 50 -36 50 -41 0 -4 8 -8 18 -8 9 0 42 -22 71
-49 35 -32 59 -47 70 -44 9 4 13 2 8 -2 -4 -5 1 -17 10 -27 16 -18 27 -48 16
-48 -2 0 -14 5 -26 11 -19 9 -20 8 -7 -3 8 -7 20 -22 25 -32 6 -11 24 -20 40
-21 17 -2 24 -1 18 2 -7 2 -13 11 -13 18 0 23 60 -3 99 -42 l34 -35 -51 26
-51 26 14 -26 c7 -14 31 -37 54 -52 23 -15 37 -28 32 -30 -13 -4 -112 50 -198
110 -24 16 -43 27 -43 23 0 -10 65 -64 78 -65 7 0 10 -5 6 -12 -4 -6 -3 -8 3
-5 5 3 27 -12 48 -33 22 -22 47 -40 57 -40 9 0 32 -13 50 -28 18 -16 42 -34
53 -40 17 -10 17 -11 3 -12 -29 0 -88 33 -89 49 0 9 -3 11 -5 4 -5 -11 -53 13
-154 75 -19 12 -42 22 -50 21 -13 0 -13 -1 0 -6 8 -3 17 -9 20 -13 3 -4 38
-26 78 -49 73 -44 98 -65 41 -35 -39 20 -409 227 -513 288 -96 55 -104 62 -88
78 7 7 12 31 12 55 0 40 1 42 19 31 11 -7 18 -15 16 -18 -2 -4 2 -7 9 -7 7 0
54 -25 105 -57 51 -32 95 -55 97 -53 3 3 -17 17 -43 32 -94 55 -165 113 -157
127 3 5 15 1 25 -8 19 -17 20 -17 13 0 -7 18 -6 18 22 0 16 -10 40 -26 53 -36
13 -10 29 -18 35 -18 6 0 -2 8 -19 19 -16 10 -43 33 -60 51 l-30 33 33 -6 c19
-4 32 -2 32 4 0 6 13 1 29 -10 16 -12 34 -21 40 -21z"/>
<path d="M0 4621 l0 -41 25 16 c32 21 32 11 0 -19 -25 -23 -26 -26 -23 -136
l3 -113 360 -217 c198 -120 477 -289 620 -376 143 -87 303 -183 355 -215 213
-128 718 -435 915 -555 240 -147 729 -443 1015 -615 107 -65 290 -175 405
-245 116 -71 305 -185 420 -255 116 -69 287 -173 380 -230 395 -239 701 -423
713 -427 9 -4 12 42 12 210 0 163 -3 217 -12 220 -10 4 -10 6 0 6 7 1 12 16
12 39 0 30 -5 40 -28 53 -15 9 -157 92 -317 184 -724 419 -1021 587 -1037 589
-9 0 -23 8 -30 17 -7 9 -87 58 -178 109 -91 51 -230 130 -310 175 -183 103
-312 171 -281 148 13 -10 78 -48 145 -84 195 -107 389 -223 377 -227 -6 -2
-21 4 -33 12 -12 9 -32 16 -43 16 -11 0 -47 14 -79 30 -66 34 -86 37 -86 15 0
-8 4 -15 9 -15 16 0 71 -51 65 -61 -3 -5 12 -9 33 -9 29 0 45 -8 67 -30 16
-17 35 -30 43 -30 15 0 17 -16 3 -25 -6 -3 -10 -2 -10 3 0 5 -15 15 -32 22
-18 6 -46 18 -61 27 -15 8 -42 19 -58 23 -26 8 -29 7 -19 -5 10 -13 8 -15 -16
-15 -16 0 -50 7 -76 15 -27 8 -48 10 -48 5 0 -6 6 -10 14 -10 8 0 21 -8 28
-18 7 -10 27 -27 43 -37 17 -10 41 -28 55 -40 27 -24 98 -48 113 -38 20 12
-14 -34 -51 -70 -39 -38 -40 -39 -68 -22 l-29 16 33 -4 c17 -2 32 -1 32 3 0
13 -37 40 -44 33 -4 -4 -10 -2 -14 5 -5 6 -18 13 -30 15 -12 2 -28 11 -35 21
-12 16 -17 17 -36 6 -19 -10 -22 -10 -16 2 6 10 5 10 -5 1 -9 -8 -21 -7 -48 4
-34 14 -35 14 -22 -3 14 -16 13 -16 -19 0 -27 14 -31 20 -20 28 11 8 10 8 -5
4 -13 -4 -122 56 -362 201 l-344 207 38 33 c20 19 64 50 97 70 33 21 65 44 71
52 10 13 16 13 38 3 15 -7 26 -8 26 -2 0 6 -7 10 -16 10 -21 0 -13 20 18 43
22 16 29 17 49 7 31 -16 18 -2 -18 20 l-28 17 -145 -110 c-80 -60 -150 -114
-156 -118 -6 -5 -18 -3 -28 4 -16 12 -3 24 116 115 73 56 142 108 152 116 24
17 62 -8 -362 234 -293 168 -337 190 -366 185 -21 -3 -36 -1 -41 7 -6 9 0 10
24 5 17 -4 31 -4 31 -2 0 3 -39 27 -87 54 -255 145 -1692 951 -1713 961 -14 6
-35 19 -47 28 -23 16 -23 16 -23 -25z m4432 -2486 c68 -36 148 -82 178 -100
30 -19 62 -38 70 -42 13 -6 82 -47 218 -130 30 -18 22 -29 -10 -13 -22 11 -22
10 -3 -5 11 -8 25 -13 33 -10 7 2 18 0 25 -5 7 -5 27 -21 45 -36 17 -14 30
-30 26 -35 -3 -5 1 -9 9 -9 17 0 160 -91 153 -97 -6 -7 -75 16 -103 33 -34 21
-220 124 -291 160 -35 18 -70 38 -78 45 -9 7 -14 8 -14 1 0 -6 5 -14 10 -17 6
-4 7 -11 4 -17 -5 -7 -2 -8 6 -3 8 5 17 2 24 -7 6 -8 73 -54 148 -102 133 -85
161 -106 138 -106 -6 0 -8 -4 -5 -10 3 -5 13 -10 21 -10 10 0 12 5 8 13 -5 8
-2 7 10 -2 11 -9 13 -17 6 -21 -7 -4 -2 -16 14 -33 18 -19 21 -27 10 -31 -8
-3 -13 0 -11 6 1 7 -10 13 -25 13 -15 1 -57 22 -95 47 -37 25 -113 72 -168
103 -55 32 -115 66 -132 77 -27 16 -33 17 -33 5 0 -8 8 -14 17 -13 10 0 18 -6
18 -14 0 -8 8 -14 18 -14 9 1 17 -2 17 -7 0 -5 6 -9 13 -9 7 0 28 -14 46 -31
18 -16 36 -28 38 -25 10 10 64 -25 75 -49 6 -14 14 -25 19 -25 4 0 29 -18 55
-41 27 -22 56 -44 64 -48 8 -3 32 -17 53 -30 l38 -23 -18 -27 c-10 -15 -25
-37 -34 -49 l-16 -22 -59 33 c-32 18 -71 41 -86 51 -15 10 -37 19 -50 21 -13
1 -31 6 -40 10 -27 11 -22 0 8 -20 22 -14 28 -15 36 -4 8 11 9 11 5 -1 -2 -8
3 -20 12 -27 9 -7 11 -13 5 -13 -10 0 -88 46 -504 297 -153 92 -430 262 -439
269 -6 5 23 46 84 114 60 67 102 99 52 40 -29 -34 -29 -40 -3 -44 8 -1 24 -10
36 -21 22 -20 28 -8 8 16 -11 12 -11 12 2 2 7 -7 22 -13 32 -13 10 0 18 -4 18
-9 0 -5 7 -11 14 -14 24 -10 8 18 -24 42 -17 12 -30 26 -30 30 0 13 58 31 77
24 11 -4 14 -3 9 5 -10 17 3 15 20 -3 8 -8 21 -12 29 -9 7 3 23 1 34 -6 12 -6
21 -7 21 -2 0 9 -50 36 -60 32 -3 -1 -4 -6 -2 -12 1 -5 -2 -7 -8 -3 -5 3 -10
10 -10 14 0 12 63 41 82 37 9 -2 72 -34 140 -71z"/>
<path d="M0 4086 l0 -195 103 -67 c582 -381 730 -478 914 -599 117 -77 259
-170 315 -206 57 -37 294 -192 528 -344 234 -153 506 -330 605 -395 99 -64
241 -157 315 -205 74 -49 281 -183 460 -298 179 -116 406 -263 505 -327 493
-321 686 -446 754 -489 40 -25 190 -123 332 -217 178 -118 260 -167 263 -158
3 8 16 14 28 15 13 0 17 3 11 6 -7 2 -13 9 -13 15 0 6 7 8 15 4 9 -3 24 7 39
27 21 27 24 43 24 104 0 67 -1 72 -24 77 -13 4 -24 11 -24 16 0 6 -18 17 -40
26 -22 9 -40 21 -40 26 0 6 7 7 16 4 9 -3 27 -6 40 -6 14 0 36 -11 49 -25 l25
-24 0 101 0 102 -41 -39 -42 -40 32 47 c17 26 36 50 41 53 6 3 10 16 10 28 0
17 -27 39 -122 99 l-122 77 -34 -49 -34 -49 -27 18 c-123 83 -219 137 -234
133 -5 -2 -31 13 -58 33 -52 37 -59 40 -59 27 0 -5 11 -14 25 -20 14 -6 25
-18 25 -26 0 -8 37 -41 83 -72 45 -32 100 -75 122 -96 22 -21 48 -41 58 -44
22 -7 16 -30 -7 -28 -12 2 -14 -1 -6 -10 7 -9 3 -19 -15 -36 l-25 -23 -59 42
c-33 23 -75 48 -93 56 -33 15 -69 36 -78 45 -16 16 -93 50 -98 44 -4 -4 -1 -9
6 -11 7 -3 18 -10 25 -16 25 -24 106 -77 116 -77 6 0 11 -6 11 -13 0 -6 21
-22 48 -35 26 -12 60 -33 76 -46 32 -27 31 -31 -26 -97 l-23 -27 -65 40 c-45
27 -58 33 -45 17 l20 -22 -25 13 c-14 7 -43 25 -65 40 -102 68 -251 164 -365
235 -233 145 -340 219 -329 225 7 5 5 9 -6 13 -9 4 -13 3 -10 -3 11 -17 -5
-11 -50 20 -41 28 -43 31 -35 65 4 20 5 45 2 57 -4 17 -2 20 11 15 9 -3 19 -2
22 3 3 5 12 7 20 3 11 -4 13 -1 9 12 -6 15 -4 16 14 6 29 -16 34 -14 22 9 -9
16 -8 18 5 14 13 -5 14 -2 5 21 -9 24 -8 26 11 20 20 -7 20 -6 4 19 -17 26
-17 26 7 26 13 0 29 -5 36 -12 9 -9 12 -8 12 4 0 9 -4 20 -10 23 -6 3 -10 10
-10 15 0 5 12 -2 26 -15 15 -14 37 -25 48 -25 12 0 27 -5 34 -12 7 -7 12 -9
12 -5 0 4 -19 19 -42 33 -65 40 -106 83 -101 104 3 12 11 16 24 13 20 -6 24 4
10 25 -6 11 -17 6 -46 -20 -42 -36 -35 -10 7 29 l24 23 70 -36 c68 -35 54 -14
-16 24 -19 10 -123 73 -230 139 -462 285 -650 397 -650 389 0 -3 28 -24 63
-46 58 -37 71 -56 17 -25 -30 17 -40 18 -40 5 0 -5 7 -10 15 -10 8 0 15 -5 15
-11 0 -7 -10 -9 -25 -5 -18 5 -25 2 -25 -8 0 -21 14 -27 65 -30 l45 -3 -27 19
c-22 14 -24 18 -10 18 10 0 25 -7 33 -15 18 -18 38 -20 28 -3 -10 15 14 6 66
-27 l41 -26 -27 -34 c-14 -19 -30 -35 -35 -35 -4 0 -25 11 -45 25 -20 14 -43
25 -52 25 -9 0 -13 7 -9 19 3 14 0 17 -14 14 -11 -3 -31 8 -56 32 -24 24 -44
35 -56 31 -10 -2 -37 2 -59 10 -48 17 -61 18 -53 4 3 -5 15 -10 26 -10 10 0
19 -7 19 -15 0 -8 8 -15 18 -15 13 0 14 -2 3 -9 -9 -6 -11 -16 -6 -32 7 -21 8
-22 20 -5 13 17 15 16 34 -3 12 -12 47 -34 78 -49 95 -45 113 -55 113 -62 0
-4 -11 -17 -25 -30 -14 -13 -25 -19 -25 -13 0 6 5 14 10 16 6 3 5 4 -2 3 -7
-2 -13 -13 -13 -26 0 -35 -17 -34 -75 5 -28 19 -58 35 -66 35 -8 0 -14 5 -14
10 0 6 -6 10 -13 10 -7 0 -34 13 -60 29 -25 17 -44 24 -41 17 3 -7 25 -25 50
-41 24 -15 57 -40 73 -54 52 -46 65 -56 80 -62 9 -4 -10 -10 -43 -14 -50 -7
-63 -5 -98 15 -45 25 -86 32 -95 16 -3 -6 -3 -8 2 -4 4 4 21 -4 38 -18 20 -17
36 -23 51 -18 20 6 20 5 5 -11 -21 -21 -15 -24 -228 115 -89 58 -277 180 -417
271 -141 92 -263 173 -271 181 -12 13 -3 23 69 81 46 36 92 75 102 86 11 12
25 21 33 21 7 0 13 7 13 15 0 8 4 15 8 15 4 0 23 13 42 29 25 21 32 33 25 40
-10 10 -82 -44 -297 -222 -29 -24 -51 -35 -62 -31 -9 3 -16 9 -16 13 0 7 247
213 307 256 10 7 16 15 13 18 -17 14 -702 430 -1725 1047 -198 119 -394 238
-436 263 -42 26 -79 47 -83 47 -3 0 -6 -87 -6 -194z"/>
<path d="M0 3040 l0 -790 23 -1 22 0 -22 -11 c-22 -11 -32 -55 -17 -71 8 -7
54 13 54 25 0 4 12 8 26 8 19 0 25 -5 22 -17 -2 -13 -18 -21 -56 -27 l-52 -9
0 -66 0 -66 58 -36 c31 -20 95 -50 142 -68 47 -18 103 -41 126 -51 167 -76
524 -28 761 101 121 67 221 145 480 375 136 122 261 233 277 246 l28 24 -353
233 c-394 260 -371 246 -1019 669 -256 167 -473 308 -482 313 -17 9 -18 -31
-18 -781z"/>
<path d="M1790 2481 c-63 -54 -182 -160 -265 -236 -220 -202 -295 -259 -420
-320 -195 -96 -343 -133 -557 -142 -76 -3 -138 -10 -138 -14 0 -5 8 -9 18 -10
9 0 53 -2 97 -5 44 -2 105 0 135 6 30 5 75 12 99 15 142 17 355 101 493 196
32 21 60 39 62 39 3 0 16 10 30 23 74 66 95 78 115 68 29 -16 31 -14 25 17 -5
25 5 38 98 127 57 55 137 129 178 164 41 35 95 81 119 102 24 22 48 39 54 39
5 0 4 7 -3 15 -7 8 -15 15 -19 15 -4 0 -58 -44 -121 -99z"/>
<path d="M2703 2054 c42 -30 75 -59 72 -63 -9 -16 85 -77 99 -64 3 4 6 -3 6
-15 0 -27 -20 -39 -34 -21 -6 8 -29 25 -51 37 -43 24 -41 22 37 -41 20 -17 27
-31 28 -59 0 -30 -8 -46 -48 -90 -209 -229 -252 -282 -252 -315 0 -18 -3 -33
-7 -33 -5 0 -39 21 -77 45 -38 25 -73 45 -78 45 -14 0 40 -42 102 -79 30 -19
56 -34 57 -35 1 -1 -3 -20 -8 -42 -17 -65 -3 -84 128 -173 65 -44 151 -102
192 -130 75 -52 119 -63 161 -41 18 10 75 73 258 288 l103 121 49 -6 c26 -3
70 0 97 6 49 12 117 58 98 67 -5 2 -100 64 -210 138 l-200 133 -24 -18 c-38
-30 -92 -24 -112 13 -11 20 -10 20 12 4 28 -20 82 -21 98 -2 9 10 -5 23 -66
63 -43 28 -172 111 -286 186 -115 76 -212 137 -215 137 -4 0 28 -25 71 -56z"/>
<path d="M4360 973 c13 -10 43 -32 65 -48 22 -17 47 -34 57 -37 33 -13 118
-80 118 -94 0 -20 -28 -17 -57 6 -14 11 -31 20 -37 20 -6 0 -4 -5 4 -10 8 -5
15 -13 15 -18 0 -5 9 -17 19 -28 18 -17 19 -17 13 -1 -4 11 -3 16 3 12 15 -9
12 -23 -10 -45 l-20 -20 -50 25 c-55 28 -64 22 -25 -15 14 -13 25 -20 25 -16
0 4 9 2 21 -4 20 -11 20 -13 4 -30 -14 -15 -22 -17 -36 -9 -24 12 -26 -6 -3
-19 27 -15 -1 -24 -33 -11 -75 31 -90 40 -111 63 -25 30 -44 34 -35 9 13 -34
47 -74 60 -69 7 3 15 1 18 -4 4 -6 1 -10 -4 -10 -7 0 -7 -7 1 -20 11 -17 10
-22 -2 -31 -13 -8 -12 -12 9 -29 20 -18 22 -23 12 -51 -6 -18 -11 -44 -10 -58
0 -26 0 -26 11 -3 14 29 21 28 50 -6 13 -16 31 -28 40 -26 9 1 19 -7 22 -20 4
-13 9 -17 13 -10 8 10 55 -7 54 -20 -2 -18 0 -20 9 -6 8 13 10 12 10 -3 0 -10
4 -16 10 -12 14 9 50 -18 50 -37 0 -15 3 -16 19 -6 11 7 18 16 15 20 -3 4 2 5
10 2 19 -7 14 -49 -10 -75 -18 -20 -18 -21 0 -35 10 -7 22 -11 26 -9 4 3 25
-4 46 -14 l38 -19 14 27 c19 37 25 41 42 31 12 -7 11 -12 -4 -29 -34 -38 -30
-73 16 -119 23 -23 46 -42 52 -42 6 0 3 7 -6 14 -10 7 -18 17 -18 22 0 18 89
94 109 94 12 0 61 -20 110 -45 49 -25 91 -45 95 -45 3 0 5 76 5 169 l1 169
-35 28 c-19 16 -48 39 -65 52 l-30 23 6 -29 c7 -32 -21 -96 -63 -146 -14 -17
-29 -40 -34 -53 -6 -16 -13 -21 -25 -16 -13 5 -12 1 4 -15 28 -28 28 -36 -1
-49 -30 -14 -70 3 -156 66 -36 26 -73 48 -81 48 -9 0 -79 43 -156 95 -77 52
-147 97 -155 100 -11 5 -11 7 3 13 12 5 44 -12 105 -53 94 -64 170 -112 177
-112 2 0 6 9 9 20 6 23 18 24 101 10 35 -6 68 -18 81 -30 19 -18 24 -19 34 -7
9 12 7 16 -10 20 -28 7 -14 29 16 25 17 -2 32 10 63 48 44 56 43 73 -8 99 -46
24 -67 18 -115 -30 -25 -24 -45 -42 -45 -39 0 2 17 27 37 54 40 54 60 65 96
54 12 -3 20 -4 17 -1 -10 10 -252 178 -353 244 -171 111 -323 204 -257 156z"/>
</g>
</svg>
